<svg xmlns="http://www.w3.org/2000/svg" xmlns:xlink="http://www.w3.org/1999/xlink"><symbol id="icon-email" viewBox="0 0 26.281 18.38"><path d="M17.556 8.17L26.282.93v17.44zM.091.01h26.126L13.156 10.77zm13.06 11.82l3.831-3.18 8.325 9.73H1.004l8.324-9.63zM8.718 8.17L-.008.93v17.44z" fill-rule="evenodd"/></symbol><symbol id="icon-pin" viewBox="0 0 19.844 27"><path d="M9.943 0c5.928 0 9.909 4.27 9.909 9.53S9.874 27 9.874 27 .006 14.82.006 9.55 4.014 0 9.943 0zm0 4.76a3.182 3.182 0 11-3.3 3.18 3.247 3.247 0 013.3-3.18z" fill-rule="evenodd"/></symbol><symbol id="icon-telephone" viewBox="0 0 18.062 24.72"><path d="M1.679 1.47c-1.016.76-3.894 4.88 1.492 14.21 5.674 9.83 11.073 9.42 12.156 8.75l-3.826-6.44c-.9.53-1.666-.34-3.072-2.24-.024-.02-2.744-4.58-2.753-4.64-.563-1.23-1.016-2.48-.071-3.04zm15.982 21.61a.837.837 0 00.292-1.15s-2.988-5.02-2.989-5.03a.844.844 0 00-1.143-.29l-1.83 1.08 3.836 6.46s1.831-1.07 1.829-1.07zM7.936 6.7a.827.827 0 00.295-1.14S5.158.39 5.156.39A.835.835 0 004.013.1l-1.83 1.08 3.921 6.6 1.831-1.07V6.7z" fill-rule="evenodd"/></symbol></svg>